<?xml version="1.0" encoding="utf-8"?>
<!-- Generator: Adobe Illustrator 17.1.0, SVG Export Plug-In . SVG Version: 6.00 Build 0)  -->
<!DOCTYPE svg PUBLIC "-//W3C//DTD SVG 1.1 Basic//EN" "http://www.w3.org/Graphics/SVG/1.1/DTD/svg11-basic.dtd">
<svg version="1.1" baseProfile="basic" id="Camada_1"
	 xmlns="http://www.w3.org/2000/svg" xmlns:xlink="http://www.w3.org/1999/xlink" x="0px" y="0px" viewBox="0 0 781.4 927.2"
	 xml:space="preserve">
<g>
	<path fill="#08285B" d="M781.4,137.4c-45.7,35.2-90.2,69.6-134.7,104c-17.6,13.6-34.9,27.5-53,40.3c-3.7,2.6-12.2,3.2-15.7,0.7
		c-129-88.9-304.7-19.6-340.5,132.2c-0.4,1.6-1.1,3.1-2.7,7.1C156.7,406.4,78.3,391.1,0,375.8C11.5,261.9,107.5,107.7,265.3,38.9
		C446.4-40.1,653.2,5.4,781.4,137.4z"/>
	<path fill="#08285B" d="M235.7,506.1c8.8,36.5,22.9,68.5,45.7,96.2c73,89.1,196.8,107.7,293.6,44c6.6-4.3,11.2-7.6,19.2-1.3
		c60.5,47.4,121.5,94.2,182.3,141.2c1.3,1,2.1,2.5,3.1,3.8c-92.7,102.5-271.4,170.7-452.2,120.3C140.4,858.3,22.3,699-1.7,552
		c39.2-7.6,78.6-15.2,118-22.8C155.4,521.6,194.5,514.1,235.7,506.1z"/>
</g>
</svg>
